# xmcd
#
# Track frame offsets: 
#        150
#        23614
#        47082
#        61942
#        78123
#        91442
#        109134
#        133854
#        148747
#        163298
#        182708
#        204531
#        222350
#        245805
#
# Disc length: 3764 seconds
#
# Revision: 0
# Processed by: cddbd v1.5.1PL2 Copyright (c) Steve Scherf et al.
# Submitted via: ExactAudioCopy v0.95b3
#
DISCID=cd0eb20e
DTITLE=Blues Tribe - Soul Medicine
DYEAR=1900
DGENRE=Blues
TTITLE0=T-Bone Shuffle
TTITLE1=Nothin´Like The Blues
TTITLE2=Toughin Up
TTITLE3=What Makes Me Be The Fool
TTITLE4=Tap It In
TTITLE5=26 Miles From Memphis
TTITLE6=Black Jack
TTITLE7=Soul Fixin' Man
TTITLE8=Shake Your Money Maker
TTITLE9=Call Me The Breeze
TTITLE10=Night Life
TTITLE11=Highway Rider
TTITLE12=Shake 'em Up
TTITLE13=Changin' Your Neighbourhoods
EXTD=
EXTT0=
EXTT1=
EXTT2=
EXTT3=
EXTT4=
EXTT5=
EXTT6=
EXTT7=
EXTT8=
EXTT9=
EXTT10=
EXTT11=
EXTT12=
EXTT13=
PLAYORDER=
